# Flat x quad grid on the xz-plane
v -2.0000 0.0000 -2.0000
v -1.6667 0.0000 -2.0000
v -1.3333 0.0000 -2.0000
v -1.0000 0.0000 -2.0000
v -0.6667 0.0000 -2.0000
v -0.3333 0.0000 -2.0000
v 0.0000 0.0000 -2.0000
v 0.3333 0.0000 -2.0000
v 0.6667 0.0000 -2.0000
v 1.0000 0.0000 -2.0000
v 1.3333 0.0000 -2.0000
v 1.6667 0.0000 -2.0000
v 2.0000 0.0000 -2.0000
v -2.0000 0.0000 -1.6667
v -1.6667 0.0000 -1.6667
v -1.3333 0.0000 -1.6667
v -1.0000 0.0000 -1.6667
v -0.6667 0.0000 -1.6667
v -0.3333 0.0000 -1.6667
v 0.0000 0.0000 -1.6667
v 0.3333 0.0000 -1.6667
v 0.6667 0.0000 -1.6667
v 1.0000 0.0000 -1.6667
v 1.3333 0.0000 -1.6667
v 1.6667 0.0000 -1.6667
v 2.0000 0.0000 -1.6667
v -2.0000 0.0000 -1.3333
v -1.6667 0.0000 -1.3333
v -1.3333 0.0000 -1.3333
v -1.0000 0.0000 -1.3333
v -0.6667 0.0000 -1.3333
v -0.3333 0.0000 -1.3333
v 0.0000 0.0000 -1.3333
v 0.3333 0.0000 -1.3333
v 0.6667 0.0000 -1.3333
v 1.0000 0.0000 -1.3333
v 1.3333 0.0000 -1.3333
v 1.6667 0.0000 -1.3333
v 2.0000 0.0000 -1.3333
v -2.0000 0.0000 -1.0000
v -1.6667 0.0000 -1.0000
v -1.3333 0.0000 -1.0000
v -1.0000 0.0000 -1.0000
v -0.6667 0.0000 -1.0000
v -0.3333 0.0000 -1.0000
v 0.0000 0.0000 -1.0000
v 0.3333 0.0000 -1.0000
v 0.6667 0.0000 -1.0000
v 1.0000 0.0000 -1.0000
v 1.3333 0.0000 -1.0000
v 1.6667 0.0000 -1.0000
v 2.0000 0.0000 -1.0000
v -2.0000 0.0000 -0.6667
v -1.6667 0.0000 -0.6667
v -1.3333 0.0000 -0.6667
v -1.0000 0.0000 -0.6667
v -0.6667 0.0000 -0.6667
v -0.3333 0.0000 -0.6667
v 0.0000 0.0000 -0.6667
v 0.3333 0.0000 -0.6667
v 0.6667 0.0000 -0.6667
v 1.0000 0.0000 -0.6667
v 1.3333 0.0000 -0.6667
v 1.6667 0.0000 -0.6667
v 2.0000 0.0000 -0.6667
v -2.0000 0.0000 -0.3333
v -1.6667 0.0000 -0.3333
v -1.3333 0.0000 -0.3333
v -1.0000 0.0000 -0.3333
v -0.6667 0.0000 -0.3333
v -0.3333 0.0000 -0.3333
v 0.0000 0.0000 -0.3333
v 0.3333 0.0000 -0.3333
v 0.6667 0.0000 -0.3333
v 1.0000 0.0000 -0.3333
v 1.3333 0.0000 -0.3333
v 1.6667 0.0000 -0.3333
v 2.0000 0.0000 -0.3333
v -2.0000 0.0000 0.0000
v -1.6667 0.0000 0.0000
v -1.3333 0.0000 0.0000
v -1.0000 0.0000 0.0000
v -0.6667 0.0000 0.0000
v -0.3333 0.0000 0.0000
v 0.0000 0.0000 0.0000
v 0.3333 0.0000 0.0000
v 0.6667 0.0000 0.0000
v 1.0000 0.0000 0.0000
v 1.3333 0.0000 0.0000
v 1.6667 0.0000 0.0000
v 2.0000 0.0000 0.0000
v -2.0000 0.0000 0.3333
v -1.6667 0.0000 0.3333
v -1.3333 0.0000 0.3333
v -1.0000 0.0000 0.3333
v -0.6667 0.0000 0.3333
v -0.3333 0.0000 0.3333
v 0.0000 0.0000 0.3333
v 0.3333 0.0000 0.3333
v 0.6667 0.0000 0.3333
v 1.0000 0.0000 0.3333
v 1.3333 0.0000 0.3333
v 1.6667 0.0000 0.3333
v 2.0000 0.0000 0.3333
v -2.0000 0.0000 0.6667
v -1.6667 0.0000 0.6667
v -1.3333 0.0000 0.6667
v -1.0000 0.0000 0.6667
v -0.6667 0.0000 0.6667
v -0.3333 0.0000 0.6667
v 0.0000 0.0000 0.6667
v 0.3333 0.0000 0.6667
v 0.6667 0.0000 0.6667
v 1.0000 0.0000 0.6667
v 1.3333 0.0000 0.6667
v 1.6667 0.0000 0.6667
v 2.0000 0.0000 0.6667
v -2.0000 0.0000 1.0000
v -1.6667 0.0000 1.0000
v -1.3333 0.0000 1.0000
v -1.0000 0.0000 1.0000
v -0.6667 0.0000 1.0000
v -0.3333 0.0000 1.0000
v 0.0000 0.0000 1.0000
v 0.3333 0.0000 1.0000
v 0.6667 0.0000 1.0000
v 1.0000 0.0000 1.0000
v 1.3333 0.0000 1.0000
v 1.6667 0.0000 1.0000
v 2.0000 0.0000 1.0000
v -2.0000 0.0000 1.3333
v -1.6667 0.0000 1.3333
v -1.3333 0.0000 1.3333
v -1.0000 0.0000 1.3333
v -0.6667 0.0000 1.3333
v -0.3333 0.0000 1.3333
v 0.0000 0.0000 1.3333
v 0.3333 0.0000 1.3333
v 0.6667 0.0000 1.3333
v 1.0000 0.0000 1.3333
v 1.3333 0.0000 1.3333
v 1.6667 0.0000 1.3333
v 2.0000 0.0000 1.3333
v -2.0000 0.0000 1.6667
v -1.6667 0.0000 1.6667
v -1.3333 0.0000 1.6667
v -1.0000 0.0000 1.6667
v -0.6667 0.0000 1.6667
v -0.3333 0.0000 1.6667
v 0.0000 0.0000 1.6667
v 0.3333 0.0000 1.6667
v 0.6667 0.0000 1.6667
v 1.0000 0.0000 1.6667
v 1.3333 0.0000 1.6667
v 1.6667 0.0000 1.6667
v 2.0000 0.0000 1.6667
v -2.0000 0.0000 2.0000
v -1.6667 0.0000 2.0000
v -1.3333 0.0000 2.0000
v -1.0000 0.0000 2.0000
v -0.6667 0.0000 2.0000
v -0.3333 0.0000 2.0000
v 0.0000 0.0000 2.0000
v 0.3333 0.0000 2.0000
v 0.6667 0.0000 2.0000
v 1.0000 0.0000 2.0000
v 1.3333 0.0000 2.0000
v 1.6667 0.0000 2.0000
v 2.0000 0.0000 2.0000
f 1 2 15 14
f 2 3 16 15
f 3 4 17 16
f 4 5 18 17
f 5 6 19 18
f 6 7 20 19
f 7 8 21 20
f 8 9 22 21
f 9 10 23 22
f 10 11 24 23
f 11 12 25 24
f 12 13 26 25
f 14 15 28 27
f 15 16 29 28
f 16 17 30 29
f 17 18 31 30
f 18 19 32 31
f 19 20 33 32
f 20 21 34 33
f 21 22 35 34
f 22 23 36 35
f 23 24 37 36
f 24 25 38 37
f 25 26 39 38
f 27 28 41 40
f 28 29 42 41
f 29 30 43 42
f 30 31 44 43
f 31 32 45 44
f 32 33 46 45
f 33 34 47 46
f 34 35 48 47
f 35 36 49 48
f 36 37 50 49
f 37 38 51 50
f 38 39 52 51
f 40 41 54 53
f 41 42 55 54
f 42 43 56 55
f 43 44 57 56
f 44 45 58 57
f 45 46 59 58
f 46 47 60 59
f 47 48 61 60
f 48 49 62 61
f 49 50 63 62
f 50 51 64 63
f 51 52 65 64
f 53 54 67 66
f 54 55 68 67
f 55 56 69 68
f 56 57 70 69
f 57 58 71 70
f 58 59 72 71
f 59 60 73 72
f 60 61 74 73
f 61 62 75 74
f 62 63 76 75
f 63 64 77 76
f 64 65 78 77
f 66 67 80 79
f 67 68 81 80
f 68 69 82 81
f 69 70 83 82
f 70 71 84 83
f 71 72 85 84
f 72 73 86 85
f 73 74 87 86
f 74 75 88 87
f 75 76 89 88
f 76 77 90 89
f 77 78 91 90
f 79 80 93 92
f 80 81 94 93
f 81 82 95 94
f 82 83 96 95
f 83 84 97 96
f 84 85 98 97
f 85 86 99 98
f 86 87 100 99
f 87 88 101 100
f 88 89 102 101
f 89 90 103 102
f 90 91 104 103
f 92 93 106 105
f 93 94 107 106
f 94 95 108 107
f 95 96 109 108
f 96 97 110 109
f 97 98 111 110
f 98 99 112 111
f 99 100 113 112
f 100 101 114 113
f 101 102 115 114
f 102 103 116 115
f 103 104 117 116
f 105 106 119 118
f 106 107 120 119
f 107 108 121 120
f 108 109 122 121
f 109 110 123 122
f 110 111 124 123
f 111 112 125 124
f 112 113 126 125
f 113 114 127 126
f 114 115 128 127
f 115 116 129 128
f 116 117 130 129
f 118 119 132 131
f 119 120 133 132
f 120 121 134 133
f 121 122 135 134
f 122 123 136 135
f 123 124 137 136
f 124 125 138 137
f 125 126 139 138
f 126 127 140 139
f 127 128 141 140
f 128 129 142 141
f 129 130 143 142
f 131 132 145 144
f 132 133 146 145
f 133 134 147 146
f 134 135 148 147
f 135 136 149 148
f 136 137 150 149
f 137 138 151 150
f 138 139 152 151
f 139 140 153 152
f 140 141 154 153
f 141 142 155 154
f 142 143 156 155
f 144 145 158 157
f 145 146 159 158
f 146 147 160 159
f 147 148 161 160
f 148 149 162 161
f 149 150 163 162
f 150 151 164 163
f 151 152 165 164
f 152 153 166 165
f 153 154 167 166
f 154 155 168 167
f 155 156 169 168
