# Torus quad mesh: 24x16
v 1.7000 0.0000 0.0000
v 1.6619 0.1913 0.0000
v 1.5536 0.3536 0.0000
v 1.3913 0.4619 0.0000
v 1.2000 0.5000 0.0000
v 1.0087 0.4619 0.0000
v 0.8464 0.3536 0.0000
v 0.7381 0.1913 0.0000
v 0.7000 0.0000 0.0000
v 0.7381 -0.1913 0.0000
v 0.8464 -0.3536 0.0000
v 1.0087 -0.4619 0.0000
v 1.2000 -0.5000 0.0000
v 1.3913 -0.4619 0.0000
v 1.5536 -0.3536 0.0000
v 1.6619 -0.1913 0.0000
v 1.6421 0.0000 0.4400
v 1.6053 0.1913 0.4301
v 1.5006 0.3536 0.4021
v 1.3439 0.4619 0.3601
v 1.1591 0.5000 0.3106
v 0.9743 0.4619 0.2611
v 0.8176 0.3536 0.2191
v 0.7129 0.1913 0.1910
v 0.6761 0.0000 0.1812
v 0.7129 -0.1913 0.1910
v 0.8176 -0.3536 0.2191
v 0.9743 -0.4619 0.2611
v 1.1591 -0.5000 0.3106
v 1.3439 -0.4619 0.3601
v 1.5006 -0.3536 0.4021
v 1.6053 -0.1913 0.4301
v 1.4722 0.0000 0.8500
v 1.4393 0.1913 0.8310
v 1.3454 0.3536 0.7768
v 1.2049 0.4619 0.6957
v 1.0392 0.5000 0.6000
v 0.8735 0.4619 0.5043
v 0.7330 0.3536 0.4232
v 0.6392 0.1913 0.3690
v 0.6062 0.0000 0.3500
v 0.6392 -0.1913 0.3690
v 0.7330 -0.3536 0.4232
v 0.8735 -0.4619 0.5043
v 1.0392 -0.5000 0.6000
v 1.2049 -0.4619 0.6957
v 1.3454 -0.3536 0.7768
v 1.4393 -0.1913 0.8310
v 1.2021 0.0000 1.2021
v 1.1752 0.1913 1.1752
v 1.0985 0.3536 1.0985
v 0.9838 0.4619 0.9838
v 0.8485 0.5000 0.8485
v 0.7132 0.4619 0.7132
v 0.5985 0.3536 0.5985
v 0.5219 0.1913 0.5219
v 0.4950 0.0000 0.4950
v 0.5219 -0.1913 0.5219
v 0.5985 -0.3536 0.5985
v 0.7132 -0.4619 0.7132
v 0.8485 -0.5000 0.8485
v 0.9838 -0.4619 0.9838
v 1.0985 -0.3536 1.0985
v 1.1752 -0.1913 1.1752
v 0.8500 0.0000 1.4722
v 0.8310 0.1913 1.4393
v 0.7768 0.3536 1.3454
v 0.6957 0.4619 1.2049
v 0.6000 0.5000 1.0392
v 0.5043 0.4619 0.8735
v 0.4232 0.3536 0.7330
v 0.3690 0.1913 0.6392
v 0.3500 0.0000 0.6062
v 0.3690 -0.1913 0.6392
v 0.4232 -0.3536 0.7330
v 0.5043 -0.4619 0.8735
v 0.6000 -0.5000 1.0392
v 0.6957 -0.4619 1.2049
v 0.7768 -0.3536 1.3454
v 0.8310 -0.1913 1.4393
v 0.4400 0.0000 1.6421
v 0.4301 0.1913 1.6053
v 0.4021 0.3536 1.5006
v 0.3601 0.4619 1.3439
v 0.3106 0.5000 1.1591
v 0.2611 0.4619 0.9743
v 0.2191 0.3536 0.8176
v 0.1910 0.1913 0.7129
v 0.1812 0.0000 0.6761
v 0.1910 -0.1913 0.7129
v 0.2191 -0.3536 0.8176
v 0.2611 -0.4619 0.9743
v 0.3106 -0.5000 1.1591
v 0.3601 -0.4619 1.3439
v 0.4021 -0.3536 1.5006
v 0.4301 -0.1913 1.6053
v 0.0000 0.0000 1.7000
v 0.0000 0.1913 1.6619
v 0.0000 0.3536 1.5536
v 0.0000 0.4619 1.3913
v 0.0000 0.5000 1.2000
v 0.0000 0.4619 1.0087
v 0.0000 0.3536 0.8464
v 0.0000 0.1913 0.7381
v 0.0000 0.0000 0.7000
v 0.0000 -0.1913 0.7381
v 0.0000 -0.3536 0.8464
v 0.0000 -0.4619 1.0087
v 0.0000 -0.5000 1.2000
v 0.0000 -0.4619 1.3913
v 0.0000 -0.3536 1.5536
v 0.0000 -0.1913 1.6619
v -0.4400 0.0000 1.6421
v -0.4301 0.1913 1.6053
v -0.4021 0.3536 1.5006
v -0.3601 0.4619 1.3439
v -0.3106 0.5000 1.1591
v -0.2611 0.4619 0.9743
v -0.2191 0.3536 0.8176
v -0.1910 0.1913 0.7129
v -0.1812 0.0000 0.6761
v -0.1910 -0.1913 0.7129
v -0.2191 -0.3536 0.8176
v -0.2611 -0.4619 0.9743
v -0.3106 -0.5000 1.1591
v -0.3601 -0.4619 1.3439
v -0.4021 -0.3536 1.5006
v -0.4301 -0.1913 1.6053
v -0.8500 0.0000 1.4722
v -0.8310 0.1913 1.4393
v -0.7768 0.3536 1.3454
v -0.6957 0.4619 1.2049
v -0.6000 0.5000 1.0392
v -0.5043 0.4619 0.8735
v -0.4232 0.3536 0.7330
v -0.3690 0.1913 0.6392
v -0.3500 0.0000 0.6062
v -0.3690 -0.1913 0.6392
v -0.4232 -0.3536 0.7330
v -0.5043 -0.4619 0.8735
v -0.6000 -0.5000 1.0392
v -0.6957 -0.4619 1.2049
v -0.7768 -0.3536 1.3454
v -0.8310 -0.1913 1.4393
v -1.2021 0.0000 1.2021
v -1.1752 0.1913 1.1752
v -1.0985 0.3536 1.0985
v -0.9838 0.4619 0.9838
v -0.8485 0.5000 0.8485
v -0.7132 0.4619 0.7132
v -0.5985 0.3536 0.5985
v -0.5219 0.1913 0.5219
v -0.4950 0.0000 0.4950
v -0.5219 -0.1913 0.5219
v -0.5985 -0.3536 0.5985
v -0.7132 -0.4619 0.7132
v -0.8485 -0.5000 0.8485
v -0.9838 -0.4619 0.9838
v -1.0985 -0.3536 1.0985
v -1.1752 -0.1913 1.1752
v -1.4722 0.0000 0.8500
v -1.4393 0.1913 0.8310
v -1.3454 0.3536 0.7768
v -1.2049 0.4619 0.6957
v -1.0392 0.5000 0.6000
v -0.8735 0.4619 0.5043
v -0.7330 0.3536 0.4232
v -0.6392 0.1913 0.3690
v -0.6062 0.0000 0.3500
v -0.6392 -0.1913 0.3690
v -0.7330 -0.3536 0.4232
v -0.8735 -0.4619 0.5043
v -1.0392 -0.5000 0.6000
v -1.2049 -0.4619 0.6957
v -1.3454 -0.3536 0.7768
v -1.4393 -0.1913 0.8310
v -1.6421 0.0000 0.4400
v -1.6053 0.1913 0.4301
v -1.5006 0.3536 0.4021
v -1.3439 0.4619 0.3601
v -1.1591 0.5000 0.3106
v -0.9743 0.4619 0.2611
v -0.8176 0.3536 0.2191
v -0.7129 0.1913 0.1910
v -0.6761 0.0000 0.1812
v -0.7129 -0.1913 0.1910
v -0.8176 -0.3536 0.2191
v -0.9743 -0.4619 0.2611
v -1.1591 -0.5000 0.3106
v -1.3439 -0.4619 0.3601
v -1.5006 -0.3536 0.4021
v -1.6053 -0.1913 0.4301
v -1.7000 0.0000 0.0000
v -1.6619 0.1913 0.0000
v -1.5536 0.3536 0.0000
v -1.3913 0.4619 0.0000
v -1.2000 0.5000 0.0000
v -1.0087 0.4619 0.0000
v -0.8464 0.3536 0.0000
v -0.7381 0.1913 0.0000
v -0.7000 0.0000 0.0000
v -0.7381 -0.1913 0.0000
v -0.8464 -0.3536 0.0000
v -1.0087 -0.4619 0.0000
v -1.2000 -0.5000 0.0000
v -1.3913 -0.4619 0.0000
v -1.5536 -0.3536 0.0000
v -1.6619 -0.1913 0.0000
v -1.6421 0.0000 -0.4400
v -1.6053 0.1913 -0.4301
v -1.5006 0.3536 -0.4021
v -1.3439 0.4619 -0.3601
v -1.1591 0.5000 -0.3106
v -0.9743 0.4619 -0.2611
v -0.8176 0.3536 -0.2191
v -0.7129 0.1913 -0.1910
v -0.6761 0.0000 -0.1812
v -0.7129 -0.1913 -0.1910
v -0.8176 -0.3536 -0.2191
v -0.9743 -0.4619 -0.2611
v -1.1591 -0.5000 -0.3106
v -1.3439 -0.4619 -0.3601
v -1.5006 -0.3536 -0.4021
v -1.6053 -0.1913 -0.4301
v -1.4722 0.0000 -0.8500
v -1.4393 0.1913 -0.8310
v -1.3454 0.3536 -0.7768
v -1.2049 0.4619 -0.6957
v -1.0392 0.5000 -0.6000
v -0.8735 0.4619 -0.5043
v -0.7330 0.3536 -0.4232
v -0.6392 0.1913 -0.3690
v -0.6062 0.0000 -0.3500
v -0.6392 -0.1913 -0.3690
v -0.7330 -0.3536 -0.4232
v -0.8735 -0.4619 -0.5043
v -1.0392 -0.5000 -0.6000
v -1.2049 -0.4619 -0.6957
v -1.3454 -0.3536 -0.7768
v -1.4393 -0.1913 -0.8310
v -1.2021 0.0000 -1.2021
v -1.1752 0.1913 -1.1752
v -1.0985 0.3536 -1.0985
v -0.9838 0.4619 -0.9838
v -0.8485 0.5000 -0.8485
v -0.7132 0.4619 -0.7132
v -0.5985 0.3536 -0.5985
v -0.5219 0.1913 -0.5219
v -0.4950 0.0000 -0.4950
v -0.5219 -0.1913 -0.5219
v -0.5985 -0.3536 -0.5985
v -0.7132 -0.4619 -0.7132
v -0.8485 -0.5000 -0.8485
v -0.9838 -0.4619 -0.9838
v -1.0985 -0.3536 -1.0985
v -1.1752 -0.1913 -1.1752
v -0.8500 0.0000 -1.4722
v -0.8310 0.1913 -1.4393
v -0.7768 0.3536 -1.3454
v -0.6957 0.4619 -1.2049
v -0.6000 0.5000 -1.0392
v -0.5043 0.4619 -0.8735
v -0.4232 0.3536 -0.7330
v -0.3690 0.1913 -0.6392
v -0.3500 0.0000 -0.6062
v -0.3690 -0.1913 -0.6392
v -0.4232 -0.3536 -0.7330
v -0.5043 -0.4619 -0.8735
v -0.6000 -0.5000 -1.0392
v -0.6957 -0.4619 -1.2049
v -0.7768 -0.3536 -1.3454
v -0.8310 -0.1913 -1.4393
v -0.4400 0.0000 -1.6421
v -0.4301 0.1913 -1.6053
v -0.4021 0.3536 -1.5006
v -0.3601 0.4619 -1.3439
v -0.3106 0.5000 -1.1591
v -0.2611 0.4619 -0.9743
v -0.2191 0.3536 -0.8176
v -0.1910 0.1913 -0.7129
v -0.1812 0.0000 -0.6761
v -0.1910 -0.1913 -0.7129
v -0.2191 -0.3536 -0.8176
v -0.2611 -0.4619 -0.9743
v -0.3106 -0.5000 -1.1591
v -0.3601 -0.4619 -1.3439
v -0.4021 -0.3536 -1.5006
v -0.4301 -0.1913 -1.6053
v -0.0000 0.0000 -1.7000
v -0.0000 0.1913 -1.6619
v -0.0000 0.3536 -1.5536
v -0.0000 0.4619 -1.3913
v -0.0000 0.5000 -1.2000
v -0.0000 0.4619 -1.0087
v -0.0000 0.3536 -0.8464
v -0.0000 0.1913 -0.7381
v -0.0000 0.0000 -0.7000
v -0.0000 -0.1913 -0.7381
v -0.0000 -0.3536 -0.8464
v -0.0000 -0.4619 -1.0087
v -0.0000 -0.5000 -1.2000
v -0.0000 -0.4619 -1.3913
v -0.0000 -0.3536 -1.5536
v -0.0000 -0.1913 -1.6619
v 0.4400 0.0000 -1.6421
v 0.4301 0.1913 -1.6053
v 0.4021 0.3536 -1.5006
v 0.3601 0.4619 -1.3439
v 0.3106 0.5000 -1.1591
v 0.2611 0.4619 -0.9743
v 0.2191 0.3536 -0.8176
v 0.1910 0.1913 -0.7129
v 0.1812 0.0000 -0.6761
v 0.1910 -0.1913 -0.7129
v 0.2191 -0.3536 -0.8176
v 0.2611 -0.4619 -0.9743
v 0.3106 -0.5000 -1.1591
v 0.3601 -0.4619 -1.3439
v 0.4021 -0.3536 -1.5006
v 0.4301 -0.1913 -1.6053
v 0.8500 0.0000 -1.4722
v 0.8310 0.1913 -1.4393
v 0.7768 0.3536 -1.3454
v 0.6957 0.4619 -1.2049
v 0.6000 0.5000 -1.0392
v 0.5043 0.4619 -0.8735
v 0.4232 0.3536 -0.7330
v 0.3690 0.1913 -0.6392
v 0.3500 0.0000 -0.6062
v 0.3690 -0.1913 -0.6392
v 0.4232 -0.3536 -0.7330
v 0.5043 -0.4619 -0.8735
v 0.6000 -0.5000 -1.0392
v 0.6957 -0.4619 -1.2049
v 0.7768 -0.3536 -1.3454
v 0.8310 -0.1913 -1.4393
v 1.2021 0.0000 -1.2021
v 1.1752 0.1913 -1.1752
v 1.0985 0.3536 -1.0985
v 0.9838 0.4619 -0.9838
v 0.8485 0.5000 -0.8485
v 0.7132 0.4619 -0.7132
v 0.5985 0.3536 -0.5985
v 0.5219 0.1913 -0.5219
v 0.4950 0.0000 -0.4950
v 0.5219 -0.1913 -0.5219
v 0.5985 -0.3536 -0.5985
v 0.7132 -0.4619 -0.7132
v 0.8485 -0.5000 -0.8485
v 0.9838 -0.4619 -0.9838
v 1.0985 -0.3536 -1.0985
v 1.1752 -0.1913 -1.1752
v 1.4722 0.0000 -0.8500
v 1.4393 0.1913 -0.8310
v 1.3454 0.3536 -0.7768
v 1.2049 0.4619 -0.6957
v 1.0392 0.5000 -0.6000
v 0.8735 0.4619 -0.5043
v 0.7330 0.3536 -0.4232
v 0.6392 0.1913 -0.3690
v 0.6062 0.0000 -0.3500
v 0.6392 -0.1913 -0.3690
v 0.7330 -0.3536 -0.4232
v 0.8735 -0.4619 -0.5043
v 1.0392 -0.5000 -0.6000
v 1.2049 -0.4619 -0.6957
v 1.3454 -0.3536 -0.7768
v 1.4393 -0.1913 -0.8310
v 1.6421 0.0000 -0.4400
v 1.6053 0.1913 -0.4301
v 1.5006 0.3536 -0.4021
v 1.3439 0.4619 -0.3601
v 1.1591 0.5000 -0.3106
v 0.9743 0.4619 -0.2611
v 0.8176 0.3536 -0.2191
v 0.7129 0.1913 -0.1910
v 0.6761 0.0000 -0.1812
v 0.7129 -0.1913 -0.1910
v 0.8176 -0.3536 -0.2191
v 0.9743 -0.4619 -0.2611
v 1.1591 -0.5000 -0.3106
v 1.3439 -0.4619 -0.3601
v 1.5006 -0.3536 -0.4021
v 1.6053 -0.1913 -0.4301
f 1 2 18 17
f 2 3 19 18
f 3 4 20 19
f 4 5 21 20
f 5 6 22 21
f 6 7 23 22
f 7 8 24 23
f 8 9 25 24
f 9 10 26 25
f 10 11 27 26
f 11 12 28 27
f 12 13 29 28
f 13 14 30 29
f 14 15 31 30
f 15 16 32 31
f 16 1 17 32
f 17 18 34 33
f 18 19 35 34
f 19 20 36 35
f 20 21 37 36
f 21 22 38 37
f 22 23 39 38
f 23 24 40 39
f 24 25 41 40
f 25 26 42 41
f 26 27 43 42
f 27 28 44 43
f 28 29 45 44
f 29 30 46 45
f 30 31 47 46
f 31 32 48 47
f 32 17 33 48
f 33 34 50 49
f 34 35 51 50
f 35 36 52 51
f 36 37 53 52
f 37 38 54 53
f 38 39 55 54
f 39 40 56 55
f 40 41 57 56
f 41 42 58 57
f 42 43 59 58
f 43 44 60 59
f 44 45 61 60
f 45 46 62 61
f 46 47 63 62
f 47 48 64 63
f 48 33 49 64
f 49 50 66 65
f 50 51 67 66
f 51 52 68 67
f 52 53 69 68
f 53 54 70 69
f 54 55 71 70
f 55 56 72 71
f 56 57 73 72
f 57 58 74 73
f 58 59 75 74
f 59 60 76 75
f 60 61 77 76
f 61 62 78 77
f 62 63 79 78
f 63 64 80 79
f 64 49 65 80
f 65 66 82 81
f 66 67 83 82
f 67 68 84 83
f 68 69 85 84
f 69 70 86 85
f 70 71 87 86
f 71 72 88 87
f 72 73 89 88
f 73 74 90 89
f 74 75 91 90
f 75 76 92 91
f 76 77 93 92
f 77 78 94 93
f 78 79 95 94
f 79 80 96 95
f 80 65 81 96
f 81 82 98 97
f 82 83 99 98
f 83 84 100 99
f 84 85 101 100
f 85 86 102 101
f 86 87 103 102
f 87 88 104 103
f 88 89 105 104
f 89 90 106 105
f 90 91 107 106
f 91 92 108 107
f 92 93 109 108
f 93 94 110 109
f 94 95 111 110
f 95 96 112 111
f 96 81 97 112
f 97 98 114 113
f 98 99 115 114
f 99 100 116 115
f 100 101 117 116
f 101 102 118 117
f 102 103 119 118
f 103 104 120 119
f 104 105 121 120
f 105 106 122 121
f 106 107 123 122
f 107 108 124 123
f 108 109 125 124
f 109 110 126 125
f 110 111 127 126
f 111 112 128 127
f 112 97 113 128
f 113 114 130 129
f 114 115 131 130
f 115 116 132 131
f 116 117 133 132
f 117 118 134 133
f 118 119 135 134
f 119 120 136 135
f 120 121 137 136
f 121 122 138 137
f 122 123 139 138
f 123 124 140 139
f 124 125 141 140
f 125 126 142 141
f 126 127 143 142
f 127 128 144 143
f 128 113 129 144
f 129 130 146 145
f 130 131 147 146
f 131 132 148 147
f 132 133 149 148
f 133 134 150 149
f 134 135 151 150
f 135 136 152 151
f 136 137 153 152
f 137 138 154 153
f 138 139 155 154
f 139 140 156 155
f 140 141 157 156
f 141 142 158 157
f 142 143 159 158
f 143 144 160 159
f 144 129 145 160
f 145 146 162 161
f 146 147 163 162
f 147 148 164 163
f 148 149 165 164
f 149 150 166 165
f 150 151 167 166
f 151 152 168 167
f 152 153 169 168
f 153 154 170 169
f 154 155 171 170
f 155 156 172 171
f 156 157 173 172
f 157 158 174 173
f 158 159 175 174
f 159 160 176 175
f 160 145 161 176
f 161 162 178 177
f 162 163 179 178
f 163 164 180 179
f 164 165 181 180
f 165 166 182 181
f 166 167 183 182
f 167 168 184 183
f 168 169 185 184
f 169 170 186 185
f 170 171 187 186
f 171 172 188 187
f 172 173 189 188
f 173 174 190 189
f 174 175 191 190
f 175 176 192 191
f 176 161 177 192
f 177 178 194 193
f 178 179 195 194
f 179 180 196 195
f 180 181 197 196
f 181 182 198 197
f 182 183 199 198
f 183 184 200 199
f 184 185 201 200
f 185 186 202 201
f 186 187 203 202
f 187 188 204 203
f 188 189 205 204
f 189 190 206 205
f 190 191 207 206
f 191 192 208 207
f 192 177 193 208
f 193 194 210 209
f 194 195 211 210
f 195 196 212 211
f 196 197 213 212
f 197 198 214 213
f 198 199 215 214
f 199 200 216 215
f 200 201 217 216
f 201 202 218 217
f 202 203 219 218
f 203 204 220 219
f 204 205 221 220
f 205 206 222 221
f 206 207 223 222
f 207 208 224 223
f 208 193 209 224
f 209 210 226 225
f 210 211 227 226
f 211 212 228 227
f 212 213 229 228
f 213 214 230 229
f 214 215 231 230
f 215 216 232 231
f 216 217 233 232
f 217 218 234 233
f 218 219 235 234
f 219 220 236 235
f 220 221 237 236
f 221 222 238 237
f 222 223 239 238
f 223 224 240 239
f 224 209 225 240
f 225 226 242 241
f 226 227 243 242
f 227 228 244 243
f 228 229 245 244
f 229 230 246 245
f 230 231 247 246
f 231 232 248 247
f 232 233 249 248
f 233 234 250 249
f 234 235 251 250
f 235 236 252 251
f 236 237 253 252
f 237 238 254 253
f 238 239 255 254
f 239 240 256 255
f 240 225 241 256
f 241 242 258 257
f 242 243 259 258
f 243 244 260 259
f 244 245 261 260
f 245 246 262 261
f 246 247 263 262
f 247 248 264 263
f 248 249 265 264
f 249 250 266 265
f 250 251 267 266
f 251 252 268 267
f 252 253 269 268
f 253 254 270 269
f 254 255 271 270
f 255 256 272 271
f 256 241 257 272
f 257 258 274 273
f 258 259 275 274
f 259 260 276 275
f 260 261 277 276
f 261 262 278 277
f 262 263 279 278
f 263 264 280 279
f 264 265 281 280
f 265 266 282 281
f 266 267 283 282
f 267 268 284 283
f 268 269 285 284
f 269 270 286 285
f 270 271 287 286
f 271 272 288 287
f 272 257 273 288
f 273 274 290 289
f 274 275 291 290
f 275 276 292 291
f 276 277 293 292
f 277 278 294 293
f 278 279 295 294
f 279 280 296 295
f 280 281 297 296
f 281 282 298 297
f 282 283 299 298
f 283 284 300 299
f 284 285 301 300
f 285 286 302 301
f 286 287 303 302
f 287 288 304 303
f 288 273 289 304
f 289 290 306 305
f 290 291 307 306
f 291 292 308 307
f 292 293 309 308
f 293 294 310 309
f 294 295 311 310
f 295 296 312 311
f 296 297 313 312
f 297 298 314 313
f 298 299 315 314
f 299 300 316 315
f 300 301 317 316
f 301 302 318 317
f 302 303 319 318
f 303 304 320 319
f 304 289 305 320
f 305 306 322 321
f 306 307 323 322
f 307 308 324 323
f 308 309 325 324
f 309 310 326 325
f 310 311 327 326
f 311 312 328 327
f 312 313 329 328
f 313 314 330 329
f 314 315 331 330
f 315 316 332 331
f 316 317 333 332
f 317 318 334 333
f 318 319 335 334
f 319 320 336 335
f 320 305 321 336
f 321 322 338 337
f 322 323 339 338
f 323 324 340 339
f 324 325 341 340
f 325 326 342 341
f 326 327 343 342
f 327 328 344 343
f 328 329 345 344
f 329 330 346 345
f 330 331 347 346
f 331 332 348 347
f 332 333 349 348
f 333 334 350 349
f 334 335 351 350
f 335 336 352 351
f 336 321 337 352
f 337 338 354 353
f 338 339 355 354
f 339 340 356 355
f 340 341 357 356
f 341 342 358 357
f 342 343 359 358
f 343 344 360 359
f 344 345 361 360
f 345 346 362 361
f 346 347 363 362
f 347 348 364 363
f 348 349 365 364
f 349 350 366 365
f 350 351 367 366
f 351 352 368 367
f 352 337 353 368
f 353 354 370 369
f 354 355 371 370
f 355 356 372 371
f 356 357 373 372
f 357 358 374 373
f 358 359 375 374
f 359 360 376 375
f 360 361 377 376
f 361 362 378 377
f 362 363 379 378
f 363 364 380 379
f 364 365 381 380
f 365 366 382 381
f 366 367 383 382
f 367 368 384 383
f 368 353 369 384
f 369 370 2 1
f 370 371 3 2
f 371 372 4 3
f 372 373 5 4
f 373 374 6 5
f 374 375 7 6
f 375 376 8 7
f 376 377 9 8
f 377 378 10 9
f 378 379 11 10
f 379 380 12 11
f 380 381 13 12
f 381 382 14 13
f 382 383 15 14
f 383 384 16 15
f 384 369 1 16
